<svg xmlns="http://www.w3.org/2000/svg" viewBox="0 0 1200 675" role="img" aria-labelledby="title desc">
  <title id="title">Fantasy Premier League team placeholder</title>
  <desc id="desc">A stylized fantasy football pitch waiting for Rijul's current team screenshot.</desc>
  <rect width="1200" height="675" fill="#efe2c4"/>
  <path d="M0 0h1200v18H0z" fill="#7e173f"/>
  <rect x="46" y="48" width="1108" height="577" rx="26" fill="#0f724f"/>
  <path d="M46 144h1108M46 240h1108M46 336h1108M46 432h1108M46 528h1108" stroke="#67a981" stroke-width="96" opacity=".17"/>
  <rect x="72" y="73" width="1056" height="527" fill="none" stroke="#f9f3df" stroke-width="4"/>
  <path d="M600 73v527M72 336h1056" stroke="#f9f3df" stroke-width="3" opacity=".7"/>
  <circle cx="600" cy="336" r="78" fill="none" stroke="#f9f3df" stroke-width="3" opacity=".7"/>
  <g font-family="ui-monospace, SFMono-Regular, Menlo, monospace" font-weight="800" text-anchor="middle">
    <g fill="#071b33" stroke="#efe2c4" stroke-width="5">
      <rect x="555" y="104" width="90" height="54" rx="9"/><rect x="286" y="220" width="90" height="54" rx="9"/><rect x="436" y="206" width="90" height="54" rx="9"/><rect x="674" y="206" width="90" height="54" rx="9"/><rect x="824" y="220" width="90" height="54" rx="9"/>
      <rect x="340" y="365" width="90" height="54" rx="9"/><rect x="555" y="382" width="90" height="54" rx="9"/><rect x="770" y="365" width="90" height="54" rx="9"/>
      <rect x="390" y="505" width="90" height="54" rx="9"/><rect x="555" y="490" width="90" height="54" rx="9"/><rect x="720" y="505" width="90" height="54" rx="9"/>
    </g>
    <g fill="#edbb00" font-size="17">
      <text x="600" y="137">GK</text><text x="331" y="253">DEF</text><text x="481" y="239">DEF</text><text x="719" y="239">DEF</text><text x="869" y="253">DEF</text>
      <text x="385" y="398">MID</text><text x="600" y="415">MID</text><text x="815" y="398">MID</text><text x="435" y="538">FWD</text><text x="600" y="523">FWD</text><text x="765" y="538">FWD</text>
    </g>
    <rect x="399" y="294" width="402" height="84" rx="10" fill="#efe2c4" stroke="#7e173f" stroke-width="6"/>
    <text x="600" y="330" fill="#071b33" font-size="30" letter-spacing="5">CURRENT FPL XI</text>
    <text x="600" y="357" fill="#7e173f" font-size="16" letter-spacing="3">SCREENSHOT GOES HERE</text>
  </g>
</svg>
